<?xml version="1.0" encoding="UTF-8" standalone="no"?>
<svg
   viewBox="0 0 11.64009 7.0781898"
   version="1.1"
   x="0px"
   y="0px"
   id="svg10"
   sodipodi:docname="noun_motor_3385632.svg"
   width="11.64009"
   height="7.0781898"
   inkscape:version="1.1 (c68e22c387, 2021-05-23)"
   xmlns:inkscape="http://www.inkscape.org/namespaces/inkscape"
   xmlns:sodipodi="http://sodipodi.sourceforge.net/DTD/sodipodi-0.dtd"
   xmlns="http://www.w3.org/2000/svg"
   xmlns:svg="http://www.w3.org/2000/svg">
  <defs
     id="defs14" />
  <sodipodi:namedview
     id="namedview12"
     pagecolor="#ffffff"
     bordercolor="#666666"
     borderopacity="1.0"
     inkscape:pageshadow="2"
     inkscape:pageopacity="0.0"
     inkscape:pagecheckerboard="0"
     showgrid="false"
     inkscape:zoom="77.77061"
     inkscape:cx="5.2269102"
     inkscape:cy="3.6903401"
     inkscape:window-width="3840"
     inkscape:window-height="2066"
     inkscape:window-x="-11"
     inkscape:window-y="-11"
     inkscape:window-maximized="1"
     inkscape:current-layer="svg10" />
  <g
     transform="translate(-0.52995517,-287.11088)"
     id="g4">
    <path
       d="m 4.1281824,287.11088 c -0.023813,0 -0.04576,0.0124 -0.057359,0.0331 l -0.2635515,0.46044 v -0.18293 c 0,-0.0365 -0.029644,-0.0661 -0.066146,-0.0661 H 1.6792362 c -0.633889,-8e-5 -1.14928103,0.51558 -1.14928103,1.1492 v 4.28036 c 0,0.6913 0.56184203,1.25367 1.25315103,1.25367 h 1.9580199 c 0.036502,0 0.066146,-0.0296 0.066146,-0.0661 v -0.27699 l 0.2635515,0.46044 c 0.011906,0.0206 0.03356,0.0331 0.057359,0.0331 h 4.6410613 l -5.291e-4,-5.3e-4 c 0.023786,0 0.045225,-0.0124 0.056327,-0.0331 l 0.3059245,-0.53433 h 0.024289 c 0.00876,0 0.014579,-0.006 0.022225,-0.009 v 0.48421 c 0,0.019 0.00844,0.0372 0.022728,0.0496 0.011933,0.0106 0.027228,0.0159 0.042892,0.016 0.00299,0 0.0063,2.7e-4 0.00931,0 l 0.9958047,-0.13642 c 0.207036,-0.0283 0.368056,-0.19196 0.400495,-0.39326 0.0046,-0.0245 0.0067,-0.0497 0.0067,-0.0754 v -0.48937 c 1.6e-5,-0.002 5.29e-4,-0.003 5.29e-4,-0.005 0,-5.3e-4 -5.29e-4,-5.3e-4 -5.29e-4,-0.001 v -0.0253 c 1.6e-5,-0.002 5.29e-4,-0.003 5.29e-4,-0.005 0,-5.3e-4 -5.29e-4,-5.3e-4 -5.29e-4,-10e-4 v -0.10542 h 0.03669 c 0.05661,0 0.104487,-0.0439 0.107487,-0.10025 2.6e-5,-5.3e-4 -5.29e-4,-5.3e-4 -5.29e-4,-10e-4 0.01992,-0.27994 0.02987,-0.56495 0.02687,-0.84593 h 0.309025 c 0,0 5.29e-4,-5.4e-4 5.29e-4,-5.4e-4 0.05948,0 0.107487,-0.0482 0.107487,-0.10748 v -0.68368 h 0.10077 c 0.02294,0 0.0398,-0.0138 0.05167,-0.0315 h 0.708486 c 0.0365,0 0.06615,-0.0296 0.06615,-0.0661 v -0.87489 c 0,-0.0365 -0.02965,-0.0661 -0.06615,-0.0661 h -0.708486 c -0.01191,-0.0176 -0.02884,-0.031 -0.05167,-0.031 h -0.10077 v -0.6842 c 0,-10e-4 -0.0011,-0.002 -0.0011,-0.003 -0.0016,-0.0577 -0.0484,-0.10491 -0.106968,-0.10491 h -0.309544 c 0.0016,-0.28116 -0.0068,-0.56603 -0.02635,-0.84697 -0.0037,-0.0563 -0.05087,-0.10077 -0.106971,-0.10077 h -5.29e-4 -0.03617 v -0.55811 c 8e-6,-5.2e-4 5.29e-4,-5.2e-4 5.29e-4,-0.001 0,-0.002 -5.29e-4,-0.003 -5.29e-4,-0.005 v -0.0677 c 0,-7.9e-4 2e-6,-10e-4 0,-0.002 0,-0.2344 -0.174676,-0.4354 -0.406695,-0.46715 -5.29e-4,-8e-5 -0.0011,5.3e-4 -0.0016,5.3e-4 L 9.25228,287.13957 c -0.018812,-0.003 -0.037894,0.003 -0.052192,0.0155 -0.014499,0.0124 -0.022728,0.0311 -0.022728,0.0501 v 0.45114 c -0.00762,-0.003 -0.01352,-0.009 -0.022225,-0.009 -0.012965,0 -0.02286,0.007 -0.033073,0.0139 l -0.2950713,-0.51625 c -0.011906,-0.0206 -0.034078,-0.0331 -0.057878,-0.0331 z m -2.4489462,0.37672 h 1.9952281 v 6.41873 H 1.7831062 c -0.618278,0 -1.12137803,-0.5031 -1.12137803,-1.12138 v -4.28036 c 0,-0.56087 0.45663903,-1.01699 1.01750803,-1.01699 z m 7.6305436,0.046 0.9208742,0.12558 h 0.0011 c 0.106966,0.0153 0.1929,0.0828 0.243398,0.17208 -0.08173,-0.076 -0.184917,-0.12975 -0.301791,-0.14573 -0.0011,-1.5e-4 -0.0016,5.3e-4 -0.0026,5.3e-4 l -0.8609308,-0.11834 z m -5.1536918,0.004 h 4.5852503 l 0.020664,0.0217 H 4.1359268 Z m -0.013441,0.18552 h 4.6116054 l 0.046509,0.0222 H 4.0966546 Z m 5.1671273,0.0103 0.8459417,0.11576 h 0.0016 c 0.08372,0.0118 0.1588,0.0484 0.219109,0.10128 -0.06636,-0.0439 -0.141433,-0.0753 -0.222207,-0.0915 -0.0019,-5.3e-4 -0.0028,-0.002 -0.0047,-0.003 l -0.01654,-0.002 c -0.0019,-2.6e-4 -0.0037,-10e-4 -0.0057,-0.002 -5.29e-4,-8e-5 -0.0011,5.3e-4 -0.0016,5.3e-4 l -0.81597,-0.11214 z m -5.1666114,0.20257 h 4.6116055 l 0.043926,0.0207 H 4.0992396 Z m 5.1660954,0.01 0.7968487,0.10904 c 0.205636,0.0286 0.365799,0.18259 0.406693,0.37982 -0.09584,-0.11583 -0.232471,-0.19768 -0.390157,-0.21911 l -0.3498479,-0.0481 v -0.047 c 0,-0.0365 -0.029647,-0.0661 -0.066146,-0.0661 h -0.397391 z m -5.4399788,0.32814 h 5.158859 v 0.0455 h -5.158859 z m 5.3521266,0 h 0.4190973 v 0.0455 H 9.2214063 Z m 0.551389,0.0274 0.3317639,0.0455 c 0.233936,0.0319 0.410641,0.23048 0.417544,0.46509 l -0.09198,-0.093 c -5.29e-4,-5.3e-4 -0.0016,-5.3e-4 -0.0021,-10e-4 -0.109937,-0.11041 -0.261408,-0.17415 -0.417028,-0.17415 H 9.2435784 c -0.00863,0 -0.014658,0.006 -0.022225,0.009 v -0.0429 c 4.49e-5,-10e-4 0.00106,-0.002 0.00106,-0.003 0,-10e-4 -0.00106,-0.002 -0.00106,-0.003 v -0.0532 h 0.4190973 v 0.0253 c 0,0.0365 0.029647,0.0661 0.066146,0.0661 0.036499,0 0.066146,-0.0296 0.066146,-0.0661 z m -5.9035156,0.15038 h 5.158859 v 0.0558 c 0,0.0345 0.027257,0.0611 0.060976,0.0641 v 0.15865 h -0.062526 l -0.2154926,-0.17209 c -0.011906,-0.01 -0.026247,-0.0145 -0.041341,-0.0145 H 4.1286957 c -0.015108,0 -0.029742,0.005 -0.041341,0.0145 l -0.2160084,0.17209 h -0.06408 v -0.15813 c 0.03452,-0.002 0.062013,-0.0293 0.062013,-0.0646 z m 6.7861505,0.0568 h 0.01394 c 0.01114,0.16417 0.01786,0.32946 0.0217,0.49455 -0.0027,-0.0115 -0.0045,-0.0235 -0.01344,-0.0326 l -0.08062,-0.0817 c 0.0013,-1.8e-4 0.0024,-10e-4 0.0036,-0.002 0.01315,-0.003 0.02663,-0.006 0.03566,-0.015 0.01193,-0.012 0.01913,-0.0283 0.01913,-0.0465 z m -1.4340239,0.20878 c 0.00754,0.003 0.013626,0.009 0.022225,0.009 h 0.7374228 c 0.1201521,2.7e-4 0.2373181,0.0493 0.3219451,0.13488 2.64e-4,5.3e-4 1.03e-4,10e-4 5.29e-4,0.002 l 0.128156,0.12971 h -0.0739 c -0.0365,0 -0.06615,0.0296 -0.06615,0.0661 0,0.0365 0.02964,0.0661 0.06615,0.0661 H 10.5893 l -5.3e-4,-10e-4 c 0.0267,0 0.05068,-0.0157 0.06098,-0.0403 0.0011,-0.002 -2.06e-4,-0.005 5.29e-4,-0.008 0.0095,-0.003 0.01961,-0.004 0.02739,-0.0114 0.009,-0.009 0.01079,-0.0213 0.01344,-0.0331 0.0021,0.10485 0.0047,0.20997 0.0036,0.31419 -4.5e-5,9.9e-4 -0.0011,0.002 -0.0011,0.003 -4.7e-5,0.0108 0.0033,0.0206 0.0062,0.0305 -0.0011,0.005 -0.0052,0.008 -0.0052,0.0124 v 2.51974 c 0,0.005 0.0045,0.009 0.0057,0.0135 -0.0028,0.009 -0.0062,0.0182 -0.0067,0.0284 7.94e-4,0.10385 -0.0011,0.20801 -0.0031,0.31212 -0.0032,-0.01 -0.0045,-0.0202 -0.01241,-0.0279 -0.0072,-0.007 -0.01654,-0.008 -0.02532,-0.0109 -7.94e-4,-0.003 1.7e-4,-0.006 -0.0011,-0.009 -0.0104,-0.0244 -0.03428,-0.0408 -0.06098,-0.0408 h -0.231397 c -0.0365,0 -0.06615,0.0296 -0.06615,0.0661 0,0.0365 0.02964,0.0661 0.06615,0.0661 h 0.07338 l -0.127124,0.12971 c -5.29e-4,5.3e-4 -0.0011,9e-5 -0.0016,5.3e-4 -0.08466,0.0862 -0.202853,0.13591 -0.3234954,0.13591 H 9.2430545 c -0.00849,0 -0.014235,0.006 -0.021696,0.009 v -0.076 c 4.5e-5,-0.001 0.00106,-0.002 0.00106,-0.003 0,-0.001 -0.00106,-0.002 -0.00106,-0.003 v -0.0822 c 0.00754,0.003 0.013626,0.009 0.022225,0.009 h 0.6593919 c 0.00106,4e-5 0.00159,0.001 0.00265,0.001 h 5.292e-4 c 0.00238,0 0.00479,-0.001 0.00722,-0.001 h 0.027387 c 0.00542,0 0.00892,-0.004 0.013944,-0.006 0.034787,-0.003 0.069675,-0.005 0.1033514,-0.0145 l 0.173633,-0.0496 c 0.0349,-0.0101 0.05558,-0.0472 0.04548,-0.0822 -0.0031,-0.0106 -0.01196,-0.0163 -0.01913,-0.0238 0.0011,-0.007 0.0052,-0.0126 0.0041,-0.0196 -0.0047,-0.0326 -0.03253,-0.0568 -0.06563,-0.0568 H 9.2420702 c -0.00807,0 -0.01352,0.006 -0.020664,0.008 v -0.11369 c 0.0072,0.003 0.012541,0.009 0.020664,0.009 h 0.6774789 0.0031 c 0.2039699,0 0.4055059,-0.0684 0.5674069,-0.19224 l 0.175183,-0.13436 c 0.0289,-0.0222 0.0346,-0.0642 0.01241,-0.093 -0.0062,-0.008 -0.01619,-0.01 -0.02479,-0.0139 -5.29e-4,-0.004 0.0013,-0.009 0,-0.0129 -0.0093,-0.0267 -0.03423,-0.045 -0.06253,-0.045 h -0.463026 c 0.02082,-0.0165 0.04204,-0.0327 0.06046,-0.0522 l 0.102835,-0.10956 c 0.02479,-0.0267 0.0241,-0.0689 -0.0027,-0.0941 -0.0082,-0.008 -0.01886,-0.008 -0.02894,-0.0109 -7.94e-4,-0.003 1.27e-4,-0.006 -0.0011,-0.008 -0.0016,-0.004 -0.0052,-0.005 -0.0072,-0.008 0.03657,-0.0102 0.07289,-0.0214 0.106971,-0.0377 h 5.29e-4 l 5.3e-4,-5.3e-4 0.285771,-0.13746 c 0.034,-0.0156 0.0469,-0.0548 0.03101,-0.0879 -0.0049,-0.0106 -0.01503,-0.0154 -0.02376,-0.0217 5.29e-4,-0.007 0.0037,-0.0129 0.0021,-0.0196 -0.0069,-0.0299 -0.0336,-0.0512 -0.0646,-0.0512 H 9.2431339 c -0.00849,0 -0.014235,0.006 -0.021696,0.009 v -0.0238 c 0.00754,0.003 0.013626,0.009 0.022225,0.009 h 0.6816117 c 0.00733,0 0.012012,-0.006 0.0186,-0.008 0.052221,-0.007 0.1032214,-0.02 0.1493464,-0.0455 l 0.165881,-0.0915 c 0.0319,-0.0175 0.04406,-0.0579 0.02635,-0.0899 -0.0055,-0.0101 -0.01585,-0.0139 -0.02479,-0.0196 2.38e-4,-0.006 0.003,-0.0119 0.0016,-0.0181 -0.0021,-0.008 -0.0087,-0.0136 -0.01344,-0.0202 0.0048,-0.007 0.01117,-0.0118 0.01344,-0.0202 0.0011,-0.004 -0.0013,-0.009 -0.0011,-0.0129 0.0098,-0.006 0.0186,-0.014 0.02429,-0.0248 0.01781,-0.0317 0.0056,-0.0725 -0.02635,-0.0899 l -0.165881,-0.0915 c 0,0 0,-5.3e-4 0,-5.3e-4 -0.04595,-0.0254 -0.096792,-0.0383 -0.1488279,-0.045 -0.00675,-0.002 -0.011589,-0.008 -0.019129,-0.008 H 9.2436789 c -0.00863,0 -0.014658,0.006 -0.022225,0.009 v -0.0248 c 0.00749,0.003 0.013176,0.009 0.021696,0.009 h 1.3461711 c 0.031,0 0.05759,-0.021 0.06459,-0.0512 0.0011,-0.005 -0.0016,-0.01 -0.0016,-0.015 0.0096,-0.006 0.01788,-0.0152 0.02326,-0.0263 0.0158,-0.0328 0.0021,-0.072 -0.03101,-0.0879 l -0.286287,-0.13746 c 0,0 -5.29e-4,-5.3e-4 -5.29e-4,-5.3e-4 -2.65e-4,-1.5e-4 -7.94e-4,1.6e-4 -0.0011,0 -0.03343,-0.0161 -0.06909,-0.0267 -0.104902,-0.0367 0.0021,-0.003 0.0056,-0.005 0.0072,-0.009 0.0013,-0.003 2.19e-4,-0.006 0.0011,-0.009 0.0097,-0.003 0.01992,-0.003 0.0279,-0.0109 0.0268,-0.0251 0.02769,-0.0673 0.0026,-0.094 l -0.102819,-0.1092 c -0.01834,-0.0195 -0.03968,-0.0357 -0.06046,-0.0522 h 0.461471 c 0,0 5.29e-4,0 5.29e-4,0 0.02809,-2.1e-4 0.05358,-0.0181 0.06253,-0.045 7.94e-4,-0.002 -5.29e-4,-0.005 0,-0.007 0.0096,-0.004 0.01847,-0.0106 0.02532,-0.0196 0.0222,-0.0291 0.0164,-0.0708 -0.01241,-0.093 l -0.175185,-0.13459 C 10.32769,289.28882 10.126421,289.2204 9.9221817,289.2204 h -0.0031 -0.6769603 c -0.00804,0 -0.013547,0.006 -0.020664,0.009 v -0.11369 c 0.00754,0.003 0.013626,0.009 0.022225,0.009 h 0.9544636 c 0.0328,0 0.06063,-0.0245 0.06563,-0.0568 0.0011,-0.007 -0.0031,-0.0122 -0.0041,-0.0186 0.007,-0.007 0.01416,-0.0147 0.01707,-0.0253 0.01011,-0.0352 -0.01027,-0.0721 -0.04548,-0.0822 l -0.173633,-0.0496 c -0.03332,-0.01 -0.068157,-0.0114 -0.1028358,-0.0145 -0.00503,-10e-4 -0.00855,-0.006 -0.013944,-0.006 h -0.027903 c -0.00238,-2e-5 -0.00479,-9.9e-4 -0.00722,-9.9e-4 -0.00106,0 -0.00159,9.9e-4 -0.00265,9.9e-4 H 9.2436657 c -0.00863,0 -0.014658,0.006 -0.022225,0.009 v -0.0822 c 4.49e-5,-9.9e-4 0.00106,-0.002 0.00106,-0.003 0,-10e-4 -0.00106,-0.002 -0.00106,-0.003 z m -5.0617067,0.009 h 4.5785325 l 0.1772497,0.21808 -0.1136862,-0.0641 c -0.00979,-0.006 -0.021167,-0.008 -0.032557,-0.008 H 4.1281771 c -0.011404,0 -0.02204,0.003 -0.032038,0.008 l -0.1136888,0.0636 z m 4.9108122,0.19947 c 0.00614,0.003 0.012118,0.005 0.0186,0.005 v 0.0176 z m -5.2461901,0.002 -0.017066,0.0207 v -0.015 c 0.00598,-2.6e-4 0.011271,-0.004 0.017066,-0.006 z m 0.3327955,0.13074 h 4.5831813 l 0.202573,0.21911 h -0.012409 l -0.1374616,-0.0517 c -0.00741,-0.002 -0.015769,-0.004 -0.02376,-0.004 H 4.1281798 c -0.00791,0 -0.016246,0.001 -0.023257,0.004 l -0.1379749,0.0517 h -0.012912 z m -0.2583815,0.0837 -0.091469,0.0992 v -0.0563 c 0.00982,-5.3e-4 0.019473,-0.002 0.028424,-0.007 z m 5.0989124,0 0.06408,0.0356 c 0.00865,0.005 0.018098,0.002 0.027387,0.003 v 0.0605 z m 0.2237582,0.25993 c 0.00746,0.003 0.013203,0.009 0.021696,0.009 h 0.6614583 c 0.1740876,5.2e-4 0.3461066,0.0588 0.4842056,0.16434 l 0.0062,0.005 H 9.2430915 c -0.00855,0 -0.014208,0.006 -0.021696,0.009 z m -5.06739,0.009 h 4.5893831 l 0.1819011,0.16846 h -4.953185 z m -0.2139394,0.0176 -0.1328103,0.12299 v -0.0765 c 0.00656,-2.7e-4 0.013229,-10e-4 0.019129,-0.004 z m 5.0177806,5.3e-4 0.1131702,0.0424 c 0.00611,0.002 0.011853,-10e-4 0.018097,-5.4e-4 v 0.0796 z m 1.8686197,0.0274 h 0.284221 v 2.38796 h -0.284221 z m -6.853846,0.29352 -0.1653646,0.12505 v -0.0971 c 0.00294,-1.8e-4 0.00532,0.002 0.00826,0.002 z m 4.9557702,0.003 0.1539954,0.0284 h 0.00672 v 0.093 z m 0.2930049,0.0186 c 0.00775,0.003 0.013811,0.009 0.022728,0.009 h 0.5348525 c 0.1003248,0 0.1974454,0.0417 0.2666494,0.1142 H 9.243618 c -0.00863,0 -0.014658,0.006 -0.022225,0.009 z m -5.0710068,0.01 h 4.5966196 l 0.1503786,0.11369 H 4.0000209 Z m -0.3431329,0.32038 h 0.1808694 l -0.1808692,0.10353 z m 5.1025319,0 h 0.1793161 v 0.10387 z m 0.3116078,0.0517 c 0.00778,0.003 0.013785,0.01 0.022728,0.01 H 10.06579 c 0.07672,0 0.153926,0.0176 0.222726,0.0507 5.29e-4,2.2e-4 0.0011,2.6e-4 0.0016,5.3e-4 l 0.0093,0.005 H 9.2431259 c -0.00849,0 -0.014235,0.006 -0.021696,0.009 z m -5.0756582,0.01 h 4.6059196 l 0.096636,0.0558 H 4.0496303 Z m 7.0972421,0.0847 h 0.03462 v 0.80512 h -0.03462 z m 0.166915,0.031 h 0.627869 v 0.74259 h -0.627869 z m -7.6026386,0.14728 0.1943047,0.0382 -0.1943047,0.077 z m 5.281848,0 v 0.11472 l -0.1912011,-0.0754 z m 0.1322917,0.11627 c 0.00579,0.002 0.010557,0.007 0.017066,0.007 -0.00643,5.4e-4 -0.011271,0.004 -0.017066,0.007 z m 0,0.20154 c 0.00545,0.002 0.00997,0.006 0.016034,0.007 -0.00611,5.4e-4 -0.010504,0.005 -0.016034,0.007 z m -5.4141397,0.015 0.1927543,0.0765 -0.1927543,0.0388 z m 5.281848,5.4e-4 v 0.11369 l -0.1917171,-0.0382 z m 0.1322917,0.31263 c 0.00749,0.003 0.013176,0.009 0.021696,0.009 h 1.0562639 l -0.01085,0.006 c -0.06923,0.0329 -0.151476,0.0473 -0.222726,0.0506 H 9.2441366 c -0.00892,0 -0.014975,0.006 -0.022728,0.009 z m -5.171776,0.009 h 4.7986738 l -0.096636,0.0558 H 4.1457481 Z m -0.2423637,0.0129 0.1813851,0.10489 H 3.8072666 Z m 5.281848,5.3e-4 v 0.10439 H 8.908764 Z m 0.1322917,0.30179 c 0.00749,0.003 0.013176,0.009 0.021696,0.009 h 0.7989169 c -0.069427,0.0721 -0.1654012,0.11368 -0.2656174,0.11368 h -0.534334 c -0.00802,0 -0.013573,0.006 -0.020664,0.008 z m -5.2213854,0.009 H 8.8973975 L 8.7470189,291.519 H 4.1503995 Z m -0.1927543,0.0196 0.1643327,0.12454 -0.1560644,-0.0289 c -0.00294,-5.3e-4 -0.00534,0.002 -0.00826,0.002 z m 5.281848,0.001 v 0.0971 c -0.00238,1.9e-4 -0.00434,-0.002 -0.00672,-0.002 l -0.1591628,0.03 z m 0.1322917,0.28525 c 0.0077,0.003 0.013917,0.009 0.022728,0.009 h 1.1513499 l -0.0057,0.005 c -0.138369,0.10556 -0.310904,0.16381 -0.4847243,0.16381 H 9.2436128 c -0.00863,0 -0.014658,0.006 -0.022225,0.009 z m -5.2487751,0.009 h 4.9531879 l -0.1819011,0.16847 H 4.1540163 Z m -0.1653646,0.0284 0.1328103,0.12298 -0.1131729,-0.0429 c -0.00656,-0.003 -0.012938,8e-4 -0.019632,5.3e-4 z m 5.281848,0.001 v 0.0796 c -0.00614,5.2e-4 -0.012092,-0.003 -0.018097,-5.3e-4 l -0.1136862,0.0429 z m -5.1345703,0.27234 h 0.011377 l 0.1390094,0.0522 c 0.00741,0.002 0.015267,0.005 0.023257,0.005 H 8.769249 c 0.00799,0 0.015769,-0.002 0.02376,-0.005 l 0.1390095,-0.0522 h 0.011377 l -0.2025703,0.21962 h -4.5837 z m -0.1472777,0.0362 0.091469,0.0992 -0.063045,-0.0351 c -0.00902,-0.005 -0.018759,-0.003 -0.028424,-0.003 z m 5.281848,0.002 v 0.0594 c -0.00931,7.9e-4 -0.018733,-0.002 -0.027387,0.003 l -0.063563,0.0357 z m 1.6009386,0.24236 c -0.0038,0.16386 -0.01013,0.32739 -0.02119,0.48938 h -0.01344 c -6.1e-5,-0.003 5.29e-4,-0.005 5.29e-4,-0.008 -1.6e-5,-5.3e-4 -5.29e-4,-5.3e-4 -5.29e-4,-10e-4 v -0.3023 c 1.3e-5,-0.002 5.29e-4,-0.003 5.29e-4,-0.005 0,0 -5.29e-4,-5.3e-4 -5.29e-4,-5.3e-4 0,-0.0183 -0.0072,-0.0345 -0.01913,-0.0465 -0.01,-0.01 -0.02408,-0.014 -0.03876,-0.016 l 0.08061,-0.0822 c 0.0077,-0.008 0.0087,-0.0179 0.01188,-0.0274 z m -6.8827866,0.0496 0.019129,0.0233 c -0.00635,-0.002 -0.012462,-0.005 -0.019129,-0.006 z m 5.281848,0.003 v 0.015 c -0.00579,5.3e-4 -0.01098,0.003 -0.016537,0.005 z m -0.1731142,0.002 -0.1772497,0.21756 H 4.1602181 l -0.1762177,-0.21601 0.1121383,0.0625 c 0.00979,0.006 0.020637,0.008 0.032038,0.008 h 4.6410615 c 0.011404,0 0.022543,-0.003 0.032557,-0.008 z m 1.6066188,0.13281 c -0.0069,0.23461 -0.183616,0.43319 -0.417544,0.46509 l -0.3322799,0.0455 v -0.17622 c 0,-0.0365 -0.029647,-0.0661 -0.066146,-0.0661 -0.036499,0 -0.066146,0.0296 -0.066146,0.0661 v 0.0253 H 9.2214063 v -0.0532 c 4.5e-5,-0.001 0.00106,-0.002 0.00106,-0.003 0,-10e-4 -0.00106,-0.002 -0.00106,-0.003 v -0.0429 c 0.00757,0.003 0.0136,0.009 0.022225,0.009 l -5.292e-4,5.3e-4 h 0.4635368 0.3038581 c 0.155739,0 0.307335,-0.0636 0.417028,-0.17415 7.94e-4,-8e-4 0.0024,-2e-4 0.0031,-0.001 z m -6.7153526,0.0816 h 0.06408 l 0.2154899,0.17208 c 0.011906,0.01 0.026247,0.0145 0.041341,0.0145 h 4.6410615 c 0.015108,0 0.029742,-0.005 0.041341,-0.0145 l 0.2154899,-0.17208 h 0.063045 v 0.15813 c -0.033719,0.003 -0.060976,0.0296 -0.060976,0.0641 v 0.0558 h -5.158859 v -0.0558 c 0,-0.0351 -0.027493,-0.0624 -0.062013,-0.0646 z m 6.7065686,0.29404 c -0.0404,0.19794 -0.200769,0.35266 -0.406694,0.38137 l -0.7968508,0.10904 v -0.10904 h 0.3963591 c 0.036499,0 0.066146,-0.0294 0.066146,-0.0661 v -0.0465 l 0.3503667,-0.0481 c 0.158319,-0.0215 0.294783,-0.10409 0.390673,-0.22066 z m -6.6445555,0.11627 h 5.158859 v 0.046 h -5.158859 z m 5.3521266,0 h 0.4190973 v 0.046 H 9.2214063 Z m -5.1221667,0.36277 h 4.6994551 l -0.043926,0.0207 H 4.1431631 Z m 6.2812696,0.003 c -0.06144,0.0551 -0.138425,0.0936 -0.224793,0.10541 l -0.8459417,0.11575 v -0.008 l 0.8175197,-0.11214 c 0,0 5.3e-4,0 5.3e-4,0 l 0.0217,-0.003 c 0.0027,-2.7e-4 0.0041,-0.003 0.0067,-0.004 0.08174,-0.0168 0.157421,-0.0495 0.224274,-0.0946 z m 0.09405,0.12299 c -0.05087,0.0892 -0.137134,0.15677 -0.244431,0.17156 -5.29e-4,6e-5 -5.29e-4,5.3e-4 -0.0011,5.3e-4 l -0.9193234,0.12557 v -0.0341 l 0.8635124,-0.11886 c 0.116623,-0.0159 0.219628,-0.069 0.301273,-0.1447 z m -6.3789379,0.0858 h 4.7056542 l -0.047024,0.0222 H 4.1426472 Z m 0.040823,0.18603 h 4.6255588 l -0.020664,0.0217 H 4.1566092 Z"
       fill="#000000"
       stroke-width="0.264561"
       id="path2" />
  </g>
</svg>
