<svg xmlns="http://www.w3.org/2000/svg" xmlns:xlink="http://www.w3.org/1999/xlink" viewBox="0 0 305.003 74.003" fill="#fff" fill-rule="evenodd" stroke="#000" stroke-linecap="round" stroke-linejoin="round"><use xlink:href="#A" x=".502" y=".502"/><symbol id="A" overflow="visible"><path d="M94.579 49.271c-2.769-5.046-7.489-7.054-12.969-7.054-7.975 0-14.325 5.643-14.325 15.194 0 9.713 5.969 15.193 14.596 15.193 5.534 0 10.255-3.04 12.86-7.651l-6.077-3.093c-1.357 3.256-3.419 4.233-6.023 4.233-4.514 0-6.566-3.744-6.566-8.681s1.736-8.682 6.566-8.682c1.302 0 3.907.705 5.417 3.962l6.513-3.411zm15.513-.542c4.829 0 6.892 3.744 6.892 8.356 0 5.264-2.062 9.008-6.892 9.008s-6.892-3.744-6.892-8.681 2.061-8.682 6.892-8.682zm0-6.52c-9.008 0-15.355 5.48-15.355 15.194s6.348 15.193 15.355 15.193 15.356-5.48 15.356-15.193-6.35-15.194-15.356-15.194zm17.091 29.633h8.465V53.883c0-2.604 1.085-4.829 4.514-4.829 3.256 0 4.113 1.899 4.113 4.721v18.069h8.465V54.1c0-2.929 1.465-5.046 4.287-5.046 3.21 0 4.341 1.846 4.341 5.915v16.873h8.465V49.813c0-6.621-6.077-7.597-8.898-7.597-3.365 0-6.52 1.031-9.279 3.852-1.9-2.55-4.341-3.852-7.651-3.852-2.604 0-6.186.759-8.356 3.31v-2.551h-8.465v28.866zm45.357 0h8.465V53.883c0-2.604 1.085-4.829 4.514-4.829 3.256 0 4.113 1.899 4.113 4.721v18.069h8.465V54.1c0-2.929 1.464-5.046 4.285-5.046 3.21 0 4.342 1.846 4.342 5.915v16.873h8.465V49.813c0-6.621-6.079-7.597-8.898-7.597-3.365 0-6.52 1.031-9.279 3.852-1.899-2.55-4.341-3.852-7.651-3.852-2.604 0-6.185.759-8.356 3.31v-2.551h-8.465v28.866zm59.735-23.113c4.828 0 6.892 3.744 6.892 8.356 0 5.264-2.062 9.008-6.892 9.008s-6.892-3.744-6.892-8.681 2.063-8.682 6.892-8.682zm0-6.52c-9.008 0-15.356 5.48-15.356 15.194s6.348 15.193 15.356 15.193 15.356-5.48 15.356-15.193-6.35-15.194-15.356-15.194zm17.633 29.625h8.465v-17.95c0-2.604 1.085-4.829 4.514-4.829 3.255 0 4.113 1.899 4.113 4.721v18.069h8.465V50.519c0-4.341-1.9-8.302-8.727-8.302-2.604 0-6.185.759-8.356 3.31v-2.55h-8.465v28.866zm53.821-25.437c-3.907-2.604-8.301-4.178-12.74-4.178-5.862 0-12.208 2.822-12.208 10.092 0 10.255 17.092 6.674 17.092 11.178 0 2.605-3.21 2.929-4.613 2.929-3.852 0-6.521-1.573-9.116-4.07l-5.274 4.556c4.233 3.907 7.825 5.698 14.108 5.698S304 69.889 304 62.293c0-10.798-17.092-6.728-17.092-11.667 0-1.465 1.519-2.224 3.634-2.224 2.658 0 6.295 1.085 7.975 3.093l5.211-5.102zM94.579 16.051c-2.769-5.046-7.489-7.054-12.969-7.054-7.975 0-14.325 5.643-14.325 15.193 0 9.713 5.969 15.194 14.596 15.194 5.534 0 10.255-3.04 12.86-7.651l-6.077-3.093c-1.357 3.256-3.419 4.233-6.023 4.233-4.514 0-6.566-3.744-6.566-8.682s1.736-8.681 6.566-8.681c1.302 0 3.907.705 5.417 3.962l6.513-3.419zm2.064 22.583h8.465V21.921c0-3.21 2.006-4.07 7.054-4.667l.923-.108-.054-7.488c-2.984.218-6.077 1.302-7.922 3.04V9.769h-8.467v28.867zm45.188-12.697c-.054-8.898-3.635-16.929-14.162-16.929-8.791 0-14.162 5.861-14.162 16.051 0 8.139 5.209 14.325 14.162 14.325 6.457 0 11.069-2.55 13.999-7.975l-6.35-3.31c-2.442 3.473-3.907 5.1-7.054 5.1-2.712 0-6.24-1.736-6.294-7.271h19.86zm-19.968-5.208c.379-3.799 3.31-5.534 5.751-5.534s5.48 1.302 5.751 5.534h-11.503zm39.384 5.858c0 4.394-2.496 6.621-5.806 6.621-2.062 0-3.962-.977-3.962-3.255 0-2.333 1.953-3.147 4.07-3.744l5.698-1.628v2.006zm8.139-9.224c-.054-6.52-4.992-8.356-12.861-8.356-3.907 0-11.611.759-11.883 9.061h8.14c.434-2.876 1.735-3.852 4.449-3.852 2.279 0 4.016.923 4.016 3.093v2.388l-3.093.434c-9.224 1.302-14.804 3.745-14.804 10.69 0 5.534 4.113 8.573 9.658 8.573 3.04 0 7.271-1.465 8.681-3.744h.108c.054.977.218 2.006.542 2.984h7.825c-.705-1.791-.759-4.015-.759-6.023V17.363zm19.908-7.054h-5.046V1.952h-8.465v8.356h-4.113v5.208h4.113v15.194c0 4.178 1.031 8.681 8.249 8.681 1.846 0 4.341-.217 5.417-.326v-6.664c-.847.097-1.698.152-2.55.163-1.521 0-2.658-.597-2.658-2.876v-14.17h5.046v-5.209zm3.187-.542v28.867h8.465V9.767h-8.465zm8.467-3.255V0h-8.465v6.521h8.465zm11.39 32.121h8.519l9.876-28.867h-9.008l-4.993 20.402h-.107l-4.994-20.402h-9.061zm45.73-12.696c-.054-8.898-3.636-16.929-14.162-16.929-8.792 0-14.162 5.861-14.162 16.051 0 8.139 5.216 14.325 14.162 14.325 6.457 0 11.069-2.55 13.999-7.975l-6.35-3.31c-2.442 3.473-3.907 5.1-7.052 5.1-2.713 0-6.24-1.736-6.294-7.271h19.859zM238.1 20.728c.381-3.799 3.31-5.534 5.751-5.534s5.481 1.302 5.752 5.534h-11.504zM31.702 8.522c-8.709 0-16.373 3.223-22.296 9.232C3.31 23.938 0 31.951 0 40.312c0 8.447 3.222 16.286 9.329 22.383s14.022 9.406 22.382 9.406 16.452-3.31 22.731-9.493c5.923-5.835 9.059-13.587 9.059-22.296 0-8.622-3.135-16.452-9.145-22.471-6.096-6.096-13.944-9.329-22.644-9.329zm.087 5.748c7.142 0 13.499 2.709 18.464 7.664 4.875 4.877 7.49 11.323 7.49 18.378 0 7.142-2.526 13.412-7.403 18.203-5.139 5.051-11.757 7.751-18.551 7.751-6.882 0-13.326-2.709-18.29-7.664s-7.75-11.497-7.75-18.29c0-6.882 2.787-13.412 7.751-18.464 4.878-4.966 11.148-7.577 18.301-7.577zm-.401 20.76c-1.806-3.274-4.859-4.577-8.426-4.577-5.176 0-9.296 3.662-9.296 9.861 0 6.303 3.872 9.861 9.473 9.861 3.591 0 6.655-1.972 8.346-4.966l-3.944-2.006c-.881 2.113-2.207 2.747-3.908 2.747-2.923 0-4.26-2.43-4.26-5.634s1.127-5.635 4.26-5.635c.845 0 2.535.458 3.511 2.57l4.225-2.219zm18.34 0c-1.806-3.274-4.859-4.577-8.427-4.577-5.176 0-9.297 3.662-9.297 9.861 0 6.303 3.874 9.861 9.473 9.861 3.591 0 6.655-1.972 8.346-4.966l-3.944-2.006c-.88 2.113-2.207 2.747-3.908 2.747-2.922 0-4.261-2.43-4.261-5.634s1.128-5.635 4.261-5.635c.845 0 2.535.458 3.511 2.57l4.225-2.219z" stroke="none" fill="#000"/></symbol></svg>