<svg xmlns="http://www.w3.org/2000/svg" xmlns:xlink="http://www.w3.org/1999/xlink" viewBox="0 0 257 76" fill="#fff" fill-rule="evenodd" stroke="#000" stroke-linecap="round" stroke-linejoin="round"><use xlink:href="#D" x=".5" y=".5"/><defs><linearGradient id="A" x1="-0.01%" y1="0.00%" x2="74.52%" y2="64.10%"><stop offset="0%" stop-color="#5a9fd4"/><stop offset="100%" stop-color="#306998"/></linearGradient><linearGradient id="B" x1="50.00%" y1="82.27%" x2="23.44%" y2="44.91%"><stop offset="0%" stop-color="#ffd43b"/><stop offset="100%" stop-color="#ffe873"/></linearGradient><radialGradient id="C" cx="50%" cy="50%" fx="50%" fy="50%" r="71%"><stop offset="0%" stop-color="#b8b8b8" stop-opacity=".498"/><stop offset="100%" stop-color="#7f7f7f" stop-opacity="0"/></radialGradient></defs><symbol id="D" overflow="visible"><g stroke="none" fill-rule="nonzero"><path d="M96.522 31.632c0-7.852-2.24-11.882-6.716-12.103-1.782-.084-3.52.2-5.213.857-1.35.483-2.26.962-2.738 1.445v18.74c2.864 1.797 5.408 2.633 7.626 2.502 4.693-.3 7.042-4.12 7.042-11.44zm5.523.326c0 4-.935 7.3-2.817 9.933-2.097 2.98-5.003 4.514-8.72 4.598-2.8.1-5.686-.788-8.656-2.628v17.033l-4.804-1.714V21.374c.788-.967 1.803-1.797 3.032-2.502 2.86-1.666 6.333-2.523 10.42-2.565l.068.068c3.737-.047 6.617 1.487 8.64 4.598 1.887 2.854 2.833 6.5 2.833 10.984zm29.357 11.178c0 5.35-.536 9.055-1.608 11.115s-3.127 3.705-6.154 4.93c-2.454.967-5.108 1.493-7.957 1.582l-.794-3.027c2.896-.394 4.935-.788 6.117-1.182 2.328-.788 3.926-1.997 4.803-3.616.704-1.32 1.05-3.836 1.05-7.562v-1.25a24.68 24.68 0 0 1-10.327 2.234 9.49 9.49 0 0 1-6.249-2.234c-2.018-1.624-3.027-3.684-3.027-6.18v-20l4.803-1.645v20.12c0 2.15.694 3.805 2.08 4.966s3.185 1.72 5.387 1.676 4.562-.9 7.068-2.565V17.033h4.803v26.103zm18.75 3.1l-1.582.068c-2.717 0-4.835-.646-6.348-1.944s-2.265-3.1-2.265-5.376v-18.92h-3.3v-3.022h3.3V9.008l4.798-1.708v9.733h5.397v3.022h-5.397v18.788c0 1.803.483 3.08 1.45 3.826.83.615 2.15.967 3.947 1.056v2.502zm29.083-.394h-4.803V27.3c0-1.887-.44-3.5-1.32-4.866-1.014-1.535-2.423-2.302-4.23-2.302-2.202 0-4.956 1.16-8.26 3.484V45.83h-4.803V1.514L160.622 0v20.186c3.07-2.234 6.422-3.353 10.064-3.353 2.544 0 4.604.857 6.18 2.565 1.582 1.708 2.37 3.836 2.37 6.38v20.055zm25.533-14.967c0-3.017-.573-5.508-1.713-7.478-1.356-2.402-3.463-3.668-6.312-3.8-5.266.305-7.894 4.078-7.894 11.3 0 3.316.547 6.086 1.65 8.3 1.408 2.833 3.52 4.23 6.338 4.183 5.287-.042 7.93-4.215 7.93-12.524zm5.26.032c0 4.294-1.098 7.867-3.3 10.72-2.412 3.195-5.744 4.798-9.996 4.798-4.215 0-7.5-1.603-9.87-4.798-2.15-2.854-3.222-6.427-3.222-10.72 0-4.036 1.16-7.43 3.484-10.195 2.454-2.933 5.68-4.404 9.67-4.404s7.237 1.472 9.738 4.404c2.323 2.764 3.484 6.16 3.484 10.195zm27.538 14.925h-4.803V26.24c0-2.15-.646-3.826-1.94-5.035-1.293-1.203-3.017-1.787-5.166-1.74-2.28.042-4.45.788-6.5 2.234v24.133h-4.803V21.106c2.764-2.013 5.308-3.327 7.63-3.942 2.2-.573 4.125-.857 5.8-.857 1.14 0 2.213.1 3.222.33 1.887.436 3.42 1.246 4.604 2.433 1.32 1.314 1.976 2.9 1.976 4.735V45.83z" fill="#646464"/><path d="M29.598 1.7c-2.47.01-4.832.222-6.908.6-6.118 1.08-7.228 3.343-7.228 7.515v5.5h14.466v1.837h-19.88c-4.2 0-7.88 2.525-9.03 7.33-1.327 5.507-1.386 8.943 0 14.692 1.028 4.28 3.482 7.33 7.683 7.33h4.97V39.89c0-4.772 4.13-8.98 9.03-8.98h14.44c4.02 0 7.228-3.3 7.228-7.346V9.795c0-3.918-3.305-6.86-7.228-7.515a45.1 45.1 0 0 0-7.532-.59zM21.78 6.13c1.493 0 2.713 1.24 2.713 2.763s-1.22 2.746-2.713 2.746c-1.5 0-2.713-1.228-2.713-2.746 0-1.524 1.214-2.763 2.713-2.763z" fill="url(#A)"/><path d="M46.171 17.142v6.42c0 4.977-4.22 9.166-9.03 9.166h-14.44c-3.955 0-7.228 3.385-7.228 7.346V53.84c0 3.918 3.407 6.222 7.228 7.346 4.576 1.346 8.964 1.6 14.44 0 3.64-1.054 7.228-3.174 7.228-7.346v-5.5H29.927v-1.837h21.67c4.2 0 5.767-2.93 7.228-7.33 1.5-4.528 1.445-8.883 0-14.692-1.038-4.183-3.02-7.33-7.228-7.33h-5.425zm-8.12 34.86c1.5 0 2.713 1.228 2.713 2.746 0 1.524-1.214 2.763-2.713 2.763-1.493 0-2.713-1.24-2.713-2.763s1.22-2.746 2.713-2.746z" fill="url(#B)"/><path d="M246.919 12.75h.842V7.468h1.995v-.63h-4.832v.63h1.995v5.282m3.584 0h.72V7.926l1.562 4.823h.8l1.627-4.807v4.808h.785v-5.9h-1.038l-1.778 5.064-1.517-5.064h-1.16v5.9" fill="#646464"/><path d="M10.719 70.543c0-2.081 8.64-3.757 19.373-3.757s19.373 1.676 19.373 3.757-8.64 3.757-19.373 3.757-19.373-1.676-19.373-3.757z" fill="url(#C)" opacity=".444"/></g></symbol></svg>